<mxfile host="app.diagrams.net" agent="Mozilla/5.0 (Windows NT 10.0; Win64; x64) AppleWebKit/537.36 (KHTML, like Gecko) Chrome/133.0.0.0 Safari/537.36" version="26.0.16">
  <diagram name="Page-1" id="zPywALXdK-ZpduNbV7cY">
    <mxGraphModel dx="1221" dy="1726" grid="1" gridSize="10" guides="1" tooltips="1" connect="1" arrows="1" fold="1" page="1" pageScale="1" pageWidth="850" pageHeight="1100" math="0" shadow="0">
      <root>
        <mxCell id="0" />
        <mxCell id="1" parent="0" />
        <mxCell id="RRNcKblL_0Rg9eaCbIuE-1" value="" style="rounded=1;whiteSpace=wrap;html=1;" vertex="1" parent="1">
          <mxGeometry y="-90" width="990" height="80" as="geometry" />
        </mxCell>
        <mxCell id="RRNcKblL_0Rg9eaCbIuE-2" value="" style="whiteSpace=wrap;html=1;aspect=fixed;" vertex="1" parent="1">
          <mxGeometry y="40" width="280" height="280" as="geometry" />
        </mxCell>
        <mxCell id="RRNcKblL_0Rg9eaCbIuE-4" value="" style="whiteSpace=wrap;html=1;aspect=fixed;" vertex="1" parent="1">
          <mxGeometry x="360" y="40" width="280" height="280" as="geometry" />
        </mxCell>
        <mxCell id="RRNcKblL_0Rg9eaCbIuE-5" value="" style="whiteSpace=wrap;html=1;aspect=fixed;" vertex="1" parent="1">
          <mxGeometry x="710" y="40" width="280" height="280" as="geometry" />
        </mxCell>
        <mxCell id="RRNcKblL_0Rg9eaCbIuE-7" value="" style="shape=partialRectangle;whiteSpace=wrap;html=1;left=0;right=0;fillColor=none;" vertex="1" parent="1">
          <mxGeometry x="930" y="-80" width="50" height="30" as="geometry" />
        </mxCell>
        <mxCell id="RRNcKblL_0Rg9eaCbIuE-10" value="" style="shape=partialRectangle;whiteSpace=wrap;html=1;left=0;right=0;fillColor=none;" vertex="1" parent="1">
          <mxGeometry x="930" y="-50" width="50" height="30" as="geometry" />
        </mxCell>
        <mxCell id="RRNcKblL_0Rg9eaCbIuE-11" value="" style="verticalLabelPosition=bottom;verticalAlign=top;html=1;shape=mxgraph.basic.rect;fillColor2=none;strokeWidth=1;size=20;indent=5;" vertex="1" parent="1">
          <mxGeometry y="390" width="990" height="130" as="geometry" />
        </mxCell>
      </root>
    </mxGraphModel>
  </diagram>
</mxfile>
